<svg width="32" height="32" fill="none" xmlns="http://www.w3.org/2000/svg"><path d="M31.663 0H.213v32h31.45V0z" fill="#fff"/><g clip-path="url(#clip0)"><path d="M22.417 12.74c.01.143.01.285.01.427 0 4.335-3.277 9.33-9.267 9.33a9.16 9.16 0 01-5.002-1.472c.262.03.514.04.787.04a6.495 6.495 0 004.043-1.4 3.266 3.266 0 01-3.045-2.275c.202.03.403.051.615.051.293 0 .585-.04.857-.112a3.274 3.274 0 01-2.611-3.218v-.04c.433.243.937.395 1.472.416a3.283 3.283 0 01-1.452-2.731c0-.61.161-1.168.443-1.655a9.238 9.238 0 006.716 3.431 3.727 3.727 0 01-.08-.75c0-1.808 1.452-3.28 3.257-3.28a3.24 3.24 0 012.38 1.035 6.386 6.386 0 002.067-.791 3.267 3.267 0 01-1.432 1.807 6.493 6.493 0 001.875-.508 7.028 7.028 0 01-1.633 1.696z" fill="#000"/></g><defs><clipPath id="clip0"><path fill="#fff" transform="translate(8.158 8)" d="M0 0h15.892v16H0z"/></clipPath></defs></svg>